<svg xmlns="http://www.w3.org/2000/svg" viewBox="0 0 64 64">
  <defs>
    <linearGradient id="a" x1="32" x2="32" y1="8" y2="56" gradientUnits="userSpaceOnUse">
      <stop offset="0" stop-color="#0078d4"/>
      <stop offset="1" stop-color="#005a9e"/>
    </linearGradient>
  </defs>
  <path fill="url(#a)" d="M45.9 22c-.5-7.2-6.5-13-13.9-13-7.7 0-14 6.3-14 14 0 .5 0 1 .1 1.5-5.7.5-10.1 5.3-10.1 11 0 6.1 5 11.1 11.1 11.1h26c6.6 0 12-5.4 12-12 0-6.2-4.8-11.4-11.2-12.6Z"/>
  <path fill="#fff" d="M39 32H25c-.6 0-1 .4-1 1v8c0 .6.4 1 1 1h14c.6 0 1-.4 1-1v-8c0-.6-.4-1-1-1Z"/>
  <path fill="#fff" d="M32 26c-.6 0-1 .4-1 1v4h2v-4c0-.6-.4-1-1-1ZM32 42c-.6 0-1 .4-1 1v4c0 .6.4 1 1 1s1-.4 1-1v-4c0-.6-.4-1-1-1Z"/>
</svg>
