<svg xmlns="http://www.w3.org/2000/svg" viewBox="0 0 96 96">
  <defs>
    <linearGradient id="a" x1="48" x2="48" y1="0" y2="96" gradientUnits="userSpaceOnUse">
      <stop offset="0" stop-color="#0078d4"/>
      <stop offset="1" stop-color="#005a9e"/>
    </linearGradient>
  </defs>
  <path fill="url(#a)" d="M34 12h28c1.1 0 2 .9 2 2v68c0 1.1-.9 2-2 2H34c-1.1 0-2-.9-2-2V14c0-1.1.9-2 2-2Z"/>
  <path fill="#50e6ff" d="M70 22H58c-1.1 0-2 .9-2 2v48c0 1.1.9 2 2 2h12c1.1 0 2-.9 2-2V24c0-1.1-.9-2-2-2Z"/>
  <path fill="#fff" d="M26 22h12c1.1 0 2 .9 2 2v48c0 1.1-.9 2-2 2H26c-1.1 0-2-.9-2-2V24c0-1.1.9-2 2-2Z"/>
</svg>
